<svg width="32" height="32" viewBox="0 0 32 32" fill="none" xmlns="http://www.w3.org/2000/svg">
<path d="M12.7844 1C6.27608 1 1 6.27608 1 12.7844C1 19.2928 6.27608 24.5689 12.7844 24.5689C15.5088 24.5689 18.0171 23.6445 20.013 22.0922C20.0675 22.1741 20.1308 22.2519 20.203 22.3241L28.4395 30.5606C29.0253 31.1463 29.975 31.1463 30.5608 30.5606C31.1466 29.9748 31.1466 29.025 30.5608 28.4392L22.3243 20.2028C22.2521 20.1305 22.1743 20.0672 22.0924 20.0128C23.6445 18.0169 24.5689 15.5086 24.5689 12.7844C24.5689 6.27608 19.2928 1 12.7844 1ZM4 12.7844C4 7.93293 7.93293 4 12.7844 4C17.636 4 21.5689 7.93293 21.5689 12.7844C21.5689 17.636 17.636 21.5689 12.7844 21.5689C7.93293 21.5689 4 17.636 4 12.7844Z" fill="black"/>
</svg>
