<svg width="124" height="13" viewBox="0 0 124 13" fill="none" xmlns="http://www.w3.org/2000/svg">
<path d="M11.8121 4.79994C11.8184 4.79387 11.8245 4.7878 11.8305 4.78174C11.9433 4.8318 12 4.92354 12 5.04024C12 5.15984 11.9377 5.28044 11.8121 5.40004L9.28226 7.8356L9.19497 7.31954L11.8121 4.79994Z" fill="white" fill-opacity="0.55"/>
<path d="M9.74271 11.3396C9.752 11.3293 9.76047 11.3189 9.76811 11.3082L9.81407 11.5799C9.81909 11.5799 9.82211 11.6412 9.82211 11.7005C9.82211 11.8201 9.79598 11.8804 9.74271 11.9407C9.69447 12.001 9.62211 12.0603 9.52563 12.0603C9.43417 12.0603 9.33769 12.0603 9.23719 12L6 10.2603L2.76281 12C2.65729 12.0603 2.5608 12.0603 2.47437 12.0603C2.37286 12.0603 2.29648 12 2.24322 11.9407C2.19497 11.8794 2.17085 11.8201 2.17085 11.7005C2.17085 11.7005 2.17588 11.6402 2.18593 11.5799L2.22941 11.3228C2.23347 11.3285 2.23774 11.334 2.24221 11.3396C2.29548 11.3999 2.37186 11.4602 2.47337 11.4602C2.5598 11.4602 2.65628 11.4602 2.76181 11.3999L6 9.66024L9.23719 11.3999C9.33769 11.4602 9.43417 11.4602 9.52563 11.4602C9.62211 11.4602 9.69447 11.4009 9.74271 11.3396Z" fill="white" fill-opacity="0.55"/>
<path d="M2.71758 7.83571L2.80502 7.31954L0.179899 4.79994L0.164598 4.78418C0.0548659 4.83474 0 4.92541 0 5.04024C0 5.15984 0.0603015 5.28044 0.179899 5.40004L2.71758 7.83571Z" fill="white" fill-opacity="0.55"/>
<path d="M25.8121 4.79994C25.8184 4.79387 25.8245 4.7878 25.8305 4.78174C25.9433 4.8318 26 4.92354 26 5.04024C26 5.15984 25.9377 5.28044 25.8121 5.40004L23.2823 7.8356L23.195 7.31954L25.8121 4.79994Z" fill="white" fill-opacity="0.55"/>
<path d="M23.7427 11.3396C23.752 11.3293 23.7605 11.3189 23.7681 11.3082L23.8141 11.5799C23.8191 11.5799 23.8221 11.6412 23.8221 11.7005C23.8221 11.8201 23.796 11.8804 23.7427 11.9407C23.6945 12.001 23.6221 12.0603 23.5256 12.0603C23.4342 12.0603 23.3377 12.0603 23.2372 12L20 10.2603L16.7628 12C16.6573 12.0603 16.5608 12.0603 16.4744 12.0603C16.3729 12.0603 16.2965 12 16.2432 11.9407C16.195 11.8794 16.1709 11.8201 16.1709 11.7005C16.1709 11.7005 16.1759 11.6402 16.1859 11.5799L16.2294 11.3228C16.2335 11.3285 16.2377 11.334 16.2422 11.3396C16.2955 11.3999 16.3719 11.4602 16.4734 11.4602C16.5598 11.4602 16.6563 11.4602 16.7618 11.3999L20 9.66024L23.2372 11.3999C23.3377 11.4602 23.4342 11.4602 23.5256 11.4602C23.6221 11.4602 23.6945 11.4009 23.7427 11.3396Z" fill="white" fill-opacity="0.55"/>
<path d="M16.7176 7.83571L16.805 7.31954L14.1799 4.79994L14.1646 4.78418C14.0549 4.83474 14 4.92541 14 5.04024C14 5.15984 14.0603 5.28044 14.1799 5.40004L16.7176 7.83571Z" fill="white" fill-opacity="0.55"/>
<path d="M39.8305 4.78174C39.8245 4.7878 39.8184 4.79387 39.8121 4.79994L37.195 7.31954L37.2823 7.8356L39.8121 5.40004C39.9377 5.28044 40 5.15984 40 5.04024C40 4.92354 39.9433 4.8318 39.8305 4.78174Z" fill="white" fill-opacity="0.55"/>
<path d="M37.7681 11.3082C37.7605 11.3189 37.752 11.3293 37.7427 11.3396C37.6945 11.4009 37.6221 11.4602 37.5256 11.4602C37.4342 11.4602 37.3377 11.4602 37.2372 11.3999L34 9.66024L30.7618 11.3999C30.6563 11.4602 30.5598 11.4602 30.4734 11.4602C30.3719 11.4602 30.2955 11.3999 30.2422 11.3396L30.2358 11.3315L30.2294 11.3228L30.1859 11.5799C30.1759 11.6402 30.1709 11.7005 30.1709 11.7005C30.1709 11.8201 30.195 11.8794 30.2432 11.9407C30.2965 12 30.3729 12.0603 30.4744 12.0603C30.5608 12.0603 30.6573 12.0603 30.7628 12L34 10.2603L37.2372 12C37.3377 12.0603 37.4342 12.0603 37.5256 12.0603C37.6221 12.0603 37.6945 12.001 37.7427 11.9407C37.796 11.8804 37.8221 11.8201 37.8221 11.7005C37.8221 11.6412 37.8191 11.5799 37.8141 11.5799L37.7681 11.3082Z" fill="white" fill-opacity="0.55"/>
<path d="M30.805 7.31954L30.7176 7.83571L28.1799 5.40004C28.0603 5.28044 28 5.15984 28 5.04024C28 4.92541 28.0549 4.83474 28.1646 4.78418L28.1799 4.79994L30.805 7.31954Z" fill="white" fill-opacity="0.55"/>
<path d="M53.8121 4.79994C53.8184 4.79387 53.8245 4.7878 53.8305 4.78174C53.9433 4.8318 54 4.92354 54 5.04024C54 5.15984 53.9377 5.28044 53.8121 5.40004L51.2823 7.8356L51.195 7.31954L53.8121 4.79994Z" fill="white" fill-opacity="0.55"/>
<path d="M51.7427 11.3396C51.752 11.3293 51.7605 11.3189 51.7681 11.3082L51.8141 11.5799C51.8191 11.5799 51.8221 11.6412 51.8221 11.7005C51.8221 11.8201 51.796 11.8804 51.7427 11.9407C51.6945 12.001 51.6221 12.0603 51.5256 12.0603C51.4342 12.0603 51.3377 12.0603 51.2372 12L48 10.2603L44.7628 12C44.6573 12.0603 44.5608 12.0603 44.4744 12.0603C44.3729 12.0603 44.2965 12 44.2432 11.9407C44.195 11.8794 44.1709 11.8201 44.1709 11.7005C44.1709 11.7005 44.1759 11.6402 44.1859 11.5799L44.2294 11.3228L44.2367 11.3326L44.2422 11.3396C44.2955 11.3999 44.3719 11.4602 44.4734 11.4602C44.5598 11.4602 44.6563 11.4602 44.7618 11.3999L48 9.66024L51.2372 11.3999C51.3377 11.4602 51.4342 11.4602 51.5256 11.4602C51.6221 11.4602 51.6945 11.4009 51.7427 11.3396Z" fill="white" fill-opacity="0.55"/>
<path d="M44.7176 7.83571L44.805 7.31954L42.1799 4.79994L42.1646 4.78418C42.0549 4.83474 42 4.92541 42 5.04024C42 5.15984 42.0603 5.28044 42.1799 5.40004L44.7176 7.83571Z" fill="white" fill-opacity="0.55"/>
<path d="M67.8306 4.78174C67.8245 4.7878 67.8184 4.79387 67.8121 4.79994L65.195 7.31954L65.2823 7.8356L67.8121 5.40004C67.9377 5.28044 68 5.15984 68 5.04024C68 4.92354 67.9433 4.8318 67.8306 4.78174Z" fill="white" fill-opacity="0.55"/>
<path d="M65.7681 11.3082C65.7605 11.3189 65.752 11.3293 65.7427 11.3396C65.6945 11.4009 65.6221 11.4602 65.5256 11.4602C65.4342 11.4602 65.3377 11.4602 65.2372 11.3999L62 9.66024L58.7618 11.3999C58.6563 11.4602 58.5598 11.4602 58.4734 11.4602C58.3719 11.4602 58.2955 11.3999 58.2422 11.3396C58.2377 11.334 58.2335 11.3285 58.2294 11.3228L58.1859 11.5799C58.1759 11.6402 58.1709 11.7005 58.1709 11.7005C58.1709 11.8201 58.195 11.8794 58.2432 11.9407C58.2965 12 58.3729 12.0603 58.4744 12.0603C58.5608 12.0603 58.6573 12.0603 58.7628 12L62 10.2603L65.2372 12C65.3377 12.0603 65.4342 12.0603 65.5256 12.0603C65.6221 12.0603 65.6945 12.001 65.7427 11.9407C65.796 11.8804 65.8221 11.8201 65.8221 11.7005C65.8221 11.6412 65.8191 11.5799 65.8141 11.5799L65.7681 11.3082Z" fill="white" fill-opacity="0.55"/>
<path d="M58.805 7.31954L58.7176 7.83571L56.1799 5.40004C56.0603 5.28044 56 5.15984 56 5.04024C56 4.92541 56.0549 4.83474 56.1646 4.78418L56.1799 4.79994L58.805 7.31954Z" fill="white" fill-opacity="0.55"/>
<path d="M81.8121 4.79994C81.8184 4.79387 81.8245 4.7878 81.8306 4.78174C81.9433 4.8318 82 4.92354 82 5.04024C82 5.15984 81.9377 5.28044 81.8121 5.40004L79.2823 7.8356L79.195 7.31954L81.8121 4.79994Z" fill="white" fill-opacity="0.55"/>
<path d="M79.7587 11.3207C79.762 11.3166 79.7651 11.3124 79.7681 11.3082L79.8141 11.5799C79.8191 11.5799 79.8221 11.6412 79.8221 11.7005C79.8221 11.8201 79.796 11.8804 79.7427 11.9407C79.6945 12.001 79.6221 12.0603 79.5256 12.0603C79.4342 12.0603 79.3377 12.0603 79.2372 12L76 10.2603L72.7628 12C72.6573 12.0603 72.5608 12.0603 72.4744 12.0603C72.3729 12.0603 72.2965 12 72.2432 11.9407C72.195 11.8794 72.1709 11.8201 72.1709 11.7005C72.1709 11.7005 72.1759 11.6402 72.1859 11.5799L72.2294 11.3228C72.2335 11.3285 72.2377 11.334 72.2422 11.3396C72.2955 11.3999 72.3719 11.4602 72.4734 11.4602C72.5598 11.4602 72.6563 11.4602 72.7618 11.3999L76 9.66024L79.2372 11.3999C79.3377 11.4602 79.4342 11.4602 79.5256 11.4602C79.6221 11.4602 79.6945 11.4009 79.7427 11.3396C79.7483 11.3334 79.7537 11.3271 79.7587 11.3207Z" fill="white" fill-opacity="0.55"/>
<path d="M72.7176 7.83571L72.805 7.31954L70.1799 4.79994L70.1646 4.78418C70.0549 4.83474 70 4.92541 70 5.04024C70 5.15984 70.0603 5.28044 70.1799 5.40004L72.7176 7.83571Z" fill="white" fill-opacity="0.55"/>
<path d="M95.8306 4.78174C95.8245 4.7878 95.8184 4.79387 95.8121 4.79994L93.195 7.31954L93.2823 7.8356L95.8121 5.40004C95.9377 5.28044 96 5.15984 96 5.04024C96 4.92354 95.9433 4.8318 95.8306 4.78174Z" fill="white" fill-opacity="0.55"/>
<path d="M93.7681 11.3082C93.7605 11.3189 93.752 11.3293 93.7427 11.3396C93.6945 11.4009 93.6221 11.4602 93.5256 11.4602C93.4342 11.4602 93.3377 11.4602 93.2372 11.3999L90 9.66024L86.7618 11.3999C86.6563 11.4602 86.5598 11.4602 86.4734 11.4602C86.3719 11.4602 86.2955 11.3999 86.2422 11.3396C86.2377 11.334 86.2335 11.3285 86.2294 11.3228L86.1859 11.5799C86.1759 11.6402 86.1709 11.7005 86.1709 11.7005C86.1709 11.8201 86.195 11.8794 86.2432 11.9407C86.2965 12 86.3729 12.0603 86.4744 12.0603C86.5608 12.0603 86.6573 12.0603 86.7628 12L90 10.2603L93.2372 12C93.3377 12.0603 93.4342 12.0603 93.5256 12.0603C93.6221 12.0603 93.6945 12.001 93.7427 11.9407C93.796 11.8804 93.8221 11.8201 93.8221 11.7005C93.8221 11.6412 93.8191 11.5799 93.8141 11.5799L93.7681 11.3082Z" fill="white" fill-opacity="0.55"/>
<path d="M86.805 7.31954L86.7176 7.83571L84.1799 5.40004C84.0603 5.28044 84 5.15984 84 5.04024C84 4.92541 84.0549 4.83474 84.1646 4.78418L84.1799 4.79994L86.805 7.31954Z" fill="white" fill-opacity="0.55"/>
<path d="M109.812 4.79994C109.818 4.79387 109.825 4.7878 109.831 4.78174C109.943 4.8318 110 4.92354 110 5.04024C110 5.15984 109.938 5.28044 109.812 5.40004L107.282 7.8356L107.195 7.31954L109.812 4.79994Z" fill="white" fill-opacity="0.55"/>
<path d="M107.743 11.3396C107.752 11.3293 107.76 11.3189 107.768 11.3082L107.814 11.5799C107.819 11.5799 107.822 11.6412 107.822 11.7005C107.822 11.8201 107.796 11.8804 107.743 11.9407C107.694 12.001 107.622 12.0603 107.526 12.0603C107.434 12.0603 107.338 12.0603 107.237 12L104 10.2603L100.763 12C100.657 12.0603 100.561 12.0603 100.474 12.0603C100.373 12.0603 100.296 12 100.243 11.9407C100.195 11.8794 100.171 11.8201 100.171 11.7005C100.171 11.7005 100.176 11.6402 100.186 11.5799L100.229 11.3228L100.236 11.3317L100.242 11.3396C100.295 11.3999 100.372 11.4602 100.473 11.4602C100.56 11.4602 100.656 11.4602 100.762 11.3999L104 9.66024L107.237 11.3999C107.338 11.4602 107.434 11.4602 107.526 11.4602C107.622 11.4602 107.694 11.4009 107.743 11.3396Z" fill="white" fill-opacity="0.55"/>
<path d="M100.718 7.83571L100.805 7.31954L98.1799 4.79994L98.1646 4.78418C98.0549 4.83474 98 4.92541 98 5.04024C98 5.15984 98.0603 5.28044 98.1799 5.40004L100.718 7.83571Z" fill="white" fill-opacity="0.55"/>
<path d="M123.831 4.78174C123.825 4.7878 123.818 4.79387 123.812 4.79994L121.195 7.31954L121.282 7.8356L123.812 5.40004C123.938 5.28044 124 5.15984 124 5.04024C124 4.92354 123.943 4.8318 123.831 4.78174Z" fill="white" fill-opacity="0.55"/>
<path d="M121.768 11.3082C121.76 11.3189 121.752 11.3293 121.743 11.3396C121.694 11.4009 121.622 11.4602 121.526 11.4602C121.434 11.4602 121.338 11.4602 121.237 11.3999L118 9.66024L114.762 11.3999C114.656 11.4602 114.56 11.4602 114.473 11.4602C114.372 11.4602 114.295 11.3999 114.242 11.3396C114.238 11.334 114.233 11.3285 114.229 11.3228L114.186 11.5799C114.176 11.6402 114.171 11.7005 114.171 11.7005C114.171 11.8201 114.195 11.8794 114.243 11.9407C114.296 12 114.373 12.0603 114.474 12.0603C114.561 12.0603 114.657 12.0603 114.763 12L118 10.2603L121.237 12C121.338 12.0603 121.434 12.0603 121.526 12.0603C121.622 12.0603 121.694 12.001 121.743 11.9407C121.796 11.8804 121.822 11.8201 121.822 11.7005C121.822 11.6412 121.819 11.5799 121.814 11.5799L121.768 11.3082Z" fill="white" fill-opacity="0.55"/>
<path d="M114.805 7.31954L114.718 7.83571L112.18 5.40004C112.06 5.28044 112 5.15984 112 5.04024C112 4.92541 112.055 4.83474 112.165 4.78418L112.18 4.79994L114.805 7.31954Z" fill="white" fill-opacity="0.55"/>
<path d="M12 4.4402C12 4.5598 11.9377 4.6794 11.8121 4.8L9.19497 7.3196L9.81407 10.9799C9.81909 10.9799 9.82211 11.0412 9.82211 11.1005C9.82211 11.2201 9.79598 11.2804 9.74271 11.3397C9.69447 11.401 9.62211 11.4603 9.52563 11.4603C9.43417 11.4603 9.33769 11.4603 9.23719 11.4L6 9.6603L2.76181 11.4C2.65628 11.4603 2.5598 11.4603 2.47337 11.4603C2.37186 11.4603 2.29548 11.4 2.24221 11.3397C2.19397 11.2794 2.16985 11.2201 2.16985 11.1005C2.16985 11.1005 2.17487 11.0402 2.18492 10.9799L2.80502 7.3196L0.179899 4.8C0.0603015 4.6794 0 4.5598 0 4.4402C0 4.2593 0.134673 4.1397 0.40402 4.1397L4.02412 3.6L5.64724 0.300503C5.73769 0.119598 5.85628 0 6 0C6.14372 0 6.26231 0.119598 6.35377 0.300503L7.97588 3.6L11.597 4.1397C11.8653 4.1397 12 4.2593 12 4.4402Z" fill="white"/>
<path d="M26 4.4402C26 4.5598 25.9377 4.6794 25.8121 4.8L23.195 7.3196L23.8141 10.9799C23.8191 10.9799 23.8221 11.0412 23.8221 11.1005C23.8221 11.2201 23.796 11.2804 23.7427 11.3397C23.6945 11.401 23.6221 11.4603 23.5256 11.4603C23.4342 11.4603 23.3377 11.4603 23.2372 11.4L20 9.6603L16.7618 11.4C16.6563 11.4603 16.5598 11.4603 16.4734 11.4603C16.3719 11.4603 16.2955 11.4 16.2422 11.3397C16.194 11.2794 16.1698 11.2201 16.1698 11.1005C16.1698 11.1005 16.1749 11.0402 16.1849 10.9799L16.805 7.3196L14.1799 4.8C14.0603 4.6794 14 4.5598 14 4.4402C14 4.2593 14.1347 4.1397 14.404 4.1397L18.0241 3.6L19.6472 0.300503C19.7377 0.119598 19.8563 0 20 0C20.1437 0 20.2623 0.119598 20.3538 0.300503L21.9759 3.6L25.597 4.1397C25.8653 4.1397 26 4.2593 26 4.4402Z" fill="white"/>
<path d="M39.8121 4.8C39.9377 4.6794 40 4.5598 40 4.4402C40 4.2593 39.8653 4.1397 39.597 4.1397L35.9759 3.6L34.3538 0.300503C34.2623 0.119598 34.1437 0 34 0C33.8563 0 33.7377 0.119598 33.6472 0.300503L32.0241 3.6L28.404 4.1397C28.1347 4.1397 28 4.2593 28 4.4402C28 4.5598 28.0603 4.6794 28.1799 4.8L30.805 7.3196L30.1849 10.9799C30.1749 11.0402 30.1698 11.1005 30.1698 11.1005C30.1698 11.2201 30.194 11.2794 30.2422 11.3397C30.2955 11.4 30.3719 11.4603 30.4734 11.4603C30.5598 11.4603 30.6563 11.4603 30.7618 11.4L34 9.6603L37.2372 11.4C37.3377 11.4603 37.4342 11.4603 37.5256 11.4603C37.6221 11.4603 37.6945 11.401 37.7427 11.3397C37.796 11.2804 37.8221 11.2201 37.8221 11.1005C37.8221 11.0412 37.8191 10.9799 37.8141 10.9799L37.195 7.3196L39.8121 4.8Z" fill="white"/>
<path d="M54 4.4402C54 4.5598 53.9377 4.6794 53.8121 4.8L51.195 7.3196L51.8141 10.9799C51.8191 10.9799 51.8221 11.0412 51.8221 11.1005C51.8221 11.2201 51.796 11.2804 51.7427 11.3397C51.6945 11.401 51.6221 11.4603 51.5256 11.4603C51.4342 11.4603 51.3377 11.4603 51.2372 11.4L48 9.6603L44.7618 11.4C44.6563 11.4603 44.5598 11.4603 44.4734 11.4603C44.3719 11.4603 44.2955 11.4 44.2422 11.3397C44.194 11.2794 44.1698 11.2201 44.1698 11.1005C44.1698 11.1005 44.1749 11.0402 44.1849 10.9799L44.805 7.3196L42.1799 4.8C42.0603 4.6794 42 4.5598 42 4.4402C42 4.2593 42.1347 4.1397 42.404 4.1397L46.0241 3.6L47.6472 0.300503C47.7377 0.119598 47.8563 0 48 0C48.1437 0 48.2623 0.119598 48.3538 0.300503L49.9759 3.6L53.597 4.1397C53.8653 4.1397 54 4.2593 54 4.4402Z" fill="white"/>
<path d="M67.8121 4.8C67.9377 4.6794 68 4.5598 68 4.4402C68 4.2593 67.8653 4.1397 67.597 4.1397L63.9759 3.6L62.3538 0.300503C62.2623 0.119598 62.1437 0 62 0C61.8563 0 61.7377 0.119598 61.6472 0.300503L60.0241 3.6L56.404 4.1397C56.1347 4.1397 56 4.2593 56 4.4402C56 4.5598 56.0603 4.6794 56.1799 4.8L58.805 7.3196L58.1849 10.9799C58.1749 11.0402 58.1698 11.1005 58.1698 11.1005C58.1698 11.2201 58.194 11.2794 58.2422 11.3397C58.2955 11.4 58.3719 11.4603 58.4734 11.4603C58.5598 11.4603 58.6563 11.4603 58.7618 11.4L62 9.6603L65.2372 11.4C65.3377 11.4603 65.4342 11.4603 65.5256 11.4603C65.6221 11.4603 65.6945 11.401 65.7427 11.3397C65.796 11.2804 65.8221 11.2201 65.8221 11.1005C65.8221 11.0412 65.8191 10.9799 65.8141 10.9799L65.195 7.3196L67.8121 4.8Z" fill="white"/>
<path d="M82 4.4402C82 4.5598 81.9377 4.6794 81.8121 4.8L79.195 7.3196L79.8141 10.9799C79.8191 10.9799 79.8221 11.0412 79.8221 11.1005C79.8221 11.2201 79.796 11.2804 79.7427 11.3397C79.6945 11.401 79.6221 11.4603 79.5256 11.4603C79.4342 11.4603 79.3377 11.4603 79.2372 11.4L76 9.6603L72.7618 11.4C72.6563 11.4603 72.5598 11.4603 72.4734 11.4603C72.3719 11.4603 72.2955 11.4 72.2422 11.3397C72.194 11.2794 72.1698 11.2201 72.1698 11.1005C72.1698 11.1005 72.1749 11.0402 72.1849 10.9799L72.805 7.3196L70.1799 4.8C70.0603 4.6794 70 4.5598 70 4.4402C70 4.2593 70.1347 4.1397 70.404 4.1397L74.0241 3.6L75.6472 0.300503C75.7377 0.119598 75.8563 0 76 0C76.1437 0 76.2623 0.119598 76.3538 0.300503L77.9759 3.6L81.597 4.1397C81.8653 4.1397 82 4.2593 82 4.4402Z" fill="white"/>
<path d="M95.8121 4.8C95.9377 4.6794 96 4.5598 96 4.4402C96 4.2593 95.8653 4.1397 95.597 4.1397L91.9759 3.6L90.3538 0.300503C90.2623 0.119598 90.1437 0 90 0C89.8563 0 89.7377 0.119598 89.6472 0.300503L88.0241 3.6L84.404 4.1397C84.1347 4.1397 84 4.2593 84 4.4402C84 4.5598 84.0603 4.6794 84.1799 4.8L86.805 7.3196L86.1849 10.9799C86.1749 11.0402 86.1698 11.1005 86.1698 11.1005C86.1698 11.2201 86.194 11.2794 86.2422 11.3397C86.2955 11.4 86.3719 11.4603 86.4734 11.4603C86.5598 11.4603 86.6563 11.4603 86.7618 11.4L90 9.6603L93.2372 11.4C93.3377 11.4603 93.4342 11.4603 93.5256 11.4603C93.6221 11.4603 93.6945 11.401 93.7427 11.3397C93.796 11.2804 93.8221 11.2201 93.8221 11.1005C93.8221 11.0412 93.8191 10.9799 93.8141 10.9799L93.195 7.3196L95.8121 4.8Z" fill="white"/>
<path d="M110 4.4402C110 4.5598 109.938 4.6794 109.812 4.8L107.195 7.3196L107.814 10.9799C107.819 10.9799 107.822 11.0412 107.822 11.1005C107.822 11.2201 107.796 11.2804 107.743 11.3397C107.694 11.401 107.622 11.4603 107.526 11.4603C107.434 11.4603 107.338 11.4603 107.237 11.4L104 9.6603L100.762 11.4C100.656 11.4603 100.56 11.4603 100.473 11.4603C100.372 11.4603 100.295 11.4 100.242 11.3397C100.194 11.2794 100.17 11.2201 100.17 11.1005C100.17 11.1005 100.175 11.0402 100.185 10.9799L100.805 7.3196L98.1799 4.8C98.0603 4.6794 98 4.5598 98 4.4402C98 4.2593 98.1347 4.1397 98.404 4.1397L102.024 3.6L103.647 0.300503C103.738 0.119598 103.856 0 104 0C104.144 0 104.262 0.119598 104.354 0.300503L105.976 3.6L109.597 4.1397C109.865 4.1397 110 4.2593 110 4.4402Z" fill="white"/>
<path d="M123.812 4.8C123.938 4.6794 124 4.5598 124 4.4402C124 4.2593 123.865 4.1397 123.597 4.1397L119.976 3.6L118.354 0.300503C118.262 0.119598 118.144 0 118 0C117.856 0 117.738 0.119598 117.647 0.300503L116.024 3.6L112.404 4.1397C112.135 4.1397 112 4.2593 112 4.4402C112 4.5598 112.06 4.6794 112.18 4.8L114.805 7.3196L114.185 10.9799C114.175 11.0402 114.17 11.1005 114.17 11.1005C114.17 11.2201 114.194 11.2794 114.242 11.3397C114.295 11.4 114.372 11.4603 114.473 11.4603C114.56 11.4603 114.656 11.4603 114.762 11.4L118 9.6603L121.237 11.4C121.338 11.4603 121.434 11.4603 121.526 11.4603C121.622 11.4603 121.694 11.401 121.743 11.3397C121.796 11.2804 121.822 11.2201 121.822 11.1005C121.822 11.0412 121.819 10.9799 121.814 10.9799L121.195 7.3196L123.812 4.8Z" fill="white"/>
</svg>
